# AST/ASF file generated using VICON BodyLanguage
# -----------------------------------------------
:version 1.10
:name VICON
:units
  mass 1.0
  length 0.45
  angle deg
:documentation
   .ast/.asf automatically generated from VICON data using
   VICON BodyBuilder and BodyLanguage model FoxedUp or BRILLIANT.MOD
:root
   order TX TY TZ RX RY RZ
   axis XYZ
   position 0 0 0  
   orientation 0 0 0 
:bonedata
  begin
     id 1 
     name lhipjoint
     direction 0.522423 -0.726805 0.445902 
     length 2.25074 
     axis 0 0 0  XYZ
  end
  begin
     id 2 
     name lfemur
     direction 0.34202 -0.939693 0  
     length 6.54609  
     axis 0 0 20  XYZ
    dof rx ry rz
    limits (-160.0 20.0)
           (-70.0 70.0)
           (-60.0 70.0)
  end
  begin
     id 3 
     name ltibia
     direction 0.34202 -0.939693 0   
     length 7.7528   
     axis 0 0 20   XYZ
    dof rx
    limits (-10.0 170.0)
  end
  begin
     id 4 
     name lfoot
     direction 0.143696 -0.394801 0.90746   
     length 1.73269   
     axis -90 7.62852e-016 20   XYZ
    dof rx rz
    limits (-45.0 90.0)
           (-70.0 20.0)
  end
  begin
     id 5 
     name ltoes
     direction 1.53633e-011 -4.21912e-011 1   
     length 0.858383   
     axis -90 7.62852e-016 20   XYZ
    dof rx
    limits (-90.0 20.0)
  end
  begin
     id 6 
     name rhipjoint
     direction -0.515943 -0.73016 0.447961   
     length 2.2404  
     axis 0 0 0  XYZ 
  end
  begin
     id 7 
     name rfemur
     direction -0.34202 -0.939693 0   
     length 6.84377   
     axis 0 0 -20   XYZ
    dof rx ry rz
    limits (-160.0 20.0)
           (-70.0 70.0)
           (-70.0 60.0)
  end
  begin
     id 8 
     name rtibia
     direction -0.34202 -0.939693 0   
     length 7.57596   
     axis 0 0 -20   XYZ
    dof rx
    limits (-10.0 170.0)
 end
 begin
     id 9 
     name rfoot
     direction -0.0999372 -0.274575 0.956358   
     length 1.78783  
     axis -90 -7.62852e-016 -20   XYZ
    dof rx rz
    limits (-45.0 90.0)
           (-20.0 70.0)
  end
  begin
     id 10 
     name rtoes
     direction -1.53535e-011 -4.21895e-011 1   
     length 0.898614   
     axis -90 -7.62852e-016 -20   XYZ
    dof rx
    limits (-90.0 20.0)
  end
  begin
     id 11 
     name lowerback
     direction -0.011775 0.996164 -0.0867116   
     length 1.91499   
     axis 0 0 0   XYZ
    dof rx ry rz
    limits (-20.0 45.0)
           (-30.0 30.0)
           (-30.0 30.0)
  end
  begin
     id 12 
     name upperback
     direction -0.00189771 0.999673 -0.0254833   
     length 1.92213   
     axis 0 0 0   XYZ
    dof rx ry rz
    limits (-20.0 45.0)
           (-30.0 30.0)
           (-30.0 30.0)
  end
  begin
     id 13 
     name thorax
     direction 0.00335995 0.999878 0.0152401   
     length 1.93138   
     axis 0 0 0   XYZ
    dof rx ry rz
    limits (-20.0 45.0)
           (-30.0 30.0)
           (-30.0 30.0)
  end
  begin
     id 14 
     name lowerneck
     direction 0.00233191 0.998509 0.0545404   
     length 1.59408   
     axis 0 0 0   XYZ
    dof rx ry rz
    limits (-20.0 45.0)
           (-30.0 30.0)
           (-30.0 30.0)
  end
  begin
     id 15 
     name upperneck
     direction 0.07881 0.9956 -0.0506934   
     length 1.59344   
     axis 0 0 0   XYZ
    dof rx ry rz
    limits (-20.0 45.0)
           (-30.0 30.0)
           (-30.0 30.0)
  end
  begin
     id 16
     name head
     direction 0.0261681 0.999378 -0.0236299  
     length 1.60935  
     axis 0 0 0   XYZ
    dof rx ry rz
    limits (-20.0 45.0)
           (-30.0 30.0)
           (-30.0 30.0)
  end
  begin
     id 17 
     name lclavicle
     direction 0.96643 0.252035 0.0499195  
     length 3.82153  
     axis 0 0 0   XYZ
    dof ry rz
    limits (-20.0 10.0)
           (0.0 20.0)
  end
  begin
     id 18 
     name lhumerus
     direction 1 -4.48967e-011 -2.01614e-018   
     length 4.87796   
     axis 180 -30 -90   XYZ
    dof rx ry rz
    limits (-60.0 90.0)
           (-90.0 90.0)
           (-90.0 90.0)
  end
  begin
     id 19
     name lradius
     direction 1 -4.48958e-011 3.1409e-027   
     length 3.23169   
     axis 180 -30 -90   XYZ
    dof rx
    limits (-10.0 170.0)
  end
  begin
     id 20
     name lwrist
     direction 1 -4.48924e-011 1.0365e-027   
     length 1.61584   
     axis -2.56395e-016 90 90   XYZ
    dof ry
    limits (-180.0 0.0)
 end
  begin
     id 21 
     name lhand
     direction 1 -4.49055e-011 2.09488e-027   
     length 0.731324   
     axis -1.32723e-015 90 90   XYZ
    dof rx rz
    limits (-90.0 90.0)
           (-45.0 45.0)
  end
  begin
     id 22 
     name lfingers
     direction 1 -4.48935e-011 4.14981e-027   
     length 0.589612   
     axis -2.6545e-015 90 90   XYZ
    dof rx
    limits (0.0 90.0)
  end
  begin
     id 23
     name lthumb
     direction 0.707107 -6.35097e-011 0.707107   
     length 0.846569   
     axis -90 45 5.05613e-014   XYZ
    dof rx rz
    limits (-45.0 45.0)
           (-45.0 45.0)
  end
  begin
     id 24 
     name rclavicle
     direction -0.979337 0.201016 0.0221522   
     length 3.73827  
     axis 0 0 0   XYZ 
    dof ry rz
    limits (-10.0 20.0)
           (-20.0 0.0)
  end
  begin
     id 25 
     name rhumerus
     direction -1 -4.48971e-011 1.65907e-027  
     length 4.9143   
     axis 180 30 90   XYZ
    dof rx ry rz
    limits (-90.0 60.0)
           (-90.0 90.0)
           (-90.0 90.0)
  end
  begin
     id 26 
     name rradius
     direction -1 -4.4894e-011 2.17871e-028   
     length 3.29093   
     axis 180 30 90   XYZ
    dof rx
    limits (-10.0 170.0)
  end
  begin
     id 27 
     name rwrist
     direction -1 -4.48971e-011 1.04038e-027   
     length 1.64546   
     axis -2.56395e-016 -90 -90   XYZ
    dof ry
    limits (-180.0 0.0)
  end
  begin
     id 28
     name rhand
     direction -1 -4.49017e-011 2.08843e-027   
     length 0.54512   
     axis -1.32723e-015 -90 -90   XYZ
    dof rx rz
    limits (-90.0 90.0)
           (-45.0 45.0)
  end
  begin
     id 29
     name rfingers
     direction -1 -4.48918e-011 4.1439e-027   
     length 0.43949   
     axis -2.6545e-015 -90 -90   XYZ
    dof rx
    limits (0.0 90.0)
  end
  begin
     id 30
     name rthumb
     direction -0.707107 -6.35065e-011 0.707107   
     length 0.631022   
     axis -90 -45 -5.05613e-014   XYZ
    dof rx rz
    limits (-45.0 45.0)
           (-45.0 45.0)
  end
:hierarchy
  begin
    root lhipjoint rhipjoint lowerback
    lhipjoint lfemur
    lfemur ltibia
    ltibia lfoot
    lfoot ltoes
    rhipjoint rfemur
    rfemur rtibia
    rtibia rfoot
    rfoot rtoes
    lowerback upperback
    upperback thorax
    thorax lowerneck lclavicle rclavicle
    lowerneck upperneck
    upperneck head
    lclavicle lhumerus
    lhumerus lradius
    lradius lwrist
    lwrist lhand lthumb
    lhand lfingers
    rclavicle rhumerus
    rhumerus rradius
    rradius rwrist
    rwrist rhand rthumb
    rhand rfingers
  end

#!OML:ASF H:\BreakDance\Project 1\Capture day 1\Session 1\Male.ASF
:FULLY-SPECIFIED
:DEGREES
413
root 7.61238 15.4089 3.76428 6.86877 4.9301 -0.321872
lowerback 2.43295 -2.41691 -1.61843
upperback 2.57804 -3.24733 0.838292
thorax 1.42095 -1.65762 1.79802
lowerneck -0.42157 -10.5886 -6.5051
upperneck -3.37113 -14.0145 10.5838
head 0.315955 -7.04478 4.38935
rclavicle -2.9445e-015 -2.5842e-015
rhumerus -18.7046 23.8018 -87.2803
rradius 59.3351
rwrist 9.37677
rhand -33.5565 -21.8145
rfingers 7.12502
rthumb -6.75144 -51.6868
lclavicle -2.9445e-015 -2.5842e-015
lhumerus -35.7846 -33.6478 99.9282
lradius 60.4693
lwrist -10.227
lhand -35.6354 -41.1992
lfingers 7.12502
lthumb -8.75801 -11.4009
rfemur -44.4322 -16.0418 11.9237
rtibia 50.7908
rfoot -5.07926 -3.60741
rtoes -22.1636
lfemur -8.65336 -4.81759 4.67786
ltibia 57.1128
lfoot 1.60037 -8.92969
ltoes -34.7342
414
root 7.48825 15.3916 3.87906 6.80698 5.98155 -0.37787
lowerback 2.49437 -2.61156 -1.25784
upperback 2.60834 -3.50322 0.982269
thorax 1.4161 -1.78106 1.74853
lowerneck -0.301003 -10.7321 -6.68985
upperneck -3.11283 -14.2298 10.6721
head 0.421118 -7.15073 4.44051
rclavicle -3.19733e-014 -9.7653e-015
rhumerus -18.4552 22.6703 -85.8704
rradius 57.2336
rwrist 9.60285
rhand -33.7023 -22.2951
rfingers 7.12502
rthumb -6.89221 -52.1629
lclavicle -3.19733e-014 -9.7653e-015
lhumerus -34.8277 -33.127 99.618
lradius 58.5562
lwrist -10.3701
lhand -35.1359 -40.53
lfingers 7.12502
lthumb -8.27591 -10.7121
rfemur -44.2626 -16.4051 12.0243
rtibia 51.9486
rfoot -6.01334 -3.64558
rtoes -22.0303
lfemur -11.4343 -5.8968 4.79152
ltibia 60.4324
lfoot 0.80396 -9.62668
ltoes -33.6967
415
root 7.36658 15.3747 3.99331 6.75296 6.86697 -0.383309
lowerback 2.54465 -2.76187 -0.993482
upperback 2.60563 -3.70082 1.12036
thorax 1.38551 -1.87651 1.74706
lowerneck -0.297098 -10.8877 -6.92322
upperneck -2.6625 -14.4693 10.7055
head 0.611898 -7.26252 4.46509
rclavicle -3.61229e-014 -4.37326e-015
rhumerus -18.3637 21.5564 -84.4145
rradius 55.0519
rwrist 9.88557
rhand -33.9115 -22.8717
rfingers 7.12502
rthumb -7.09417 -52.7328
lclavicle -3.61229e-014 -4.37326e-015
lhumerus -33.9317 -32.5471 99.2857
lradius 56.6978
lwrist -10.4887
lhand -34.6216 -39.8313
lfingers 7.12502
lthumb -7.77951 -9.99439
rfemur -44.0806 -16.4738 11.9709
rtibia 53.0444
rfoot -6.88471 -3.56932
rtoes -22.7417
lfemur -14.0981 -6.66056 4.78313
ltibia 63.5701
lfoot 0.207166 -10.0373
ltoes -32.5914
416
root 7.24753 15.3591 4.10627 6.68887 7.57374 -0.357985
lowerback 2.60278 -2.8508 -0.776532
upperback 2.59091 -3.8166 1.22339
thorax 1.33514 -1.93136 1.73656
lowerneck -0.4018 -11.0725 -7.0857
upperneck -2.1004 -14.7493 10.6483
head 0.849385 -7.39063 4.43238
rclavicle 1.75303e-014 9.39258e-015
rhumerus -18.4296 20.3839 -82.9474
rradius 52.8074
rwrist 10.248
rhand -34.0966 -23.5036
rfingers 7.12502
rthumb -7.27279 -53.3586
lclavicle 1.75303e-014 9.39258e-015
lhumerus -33.1233 -31.9256 98.8909
lradius 54.9709
lwrist -10.6034
lhand -34.134 -39.1566
lfingers 7.12502
lthumb -7.30893 -9.30283
rfemur -43.8766 -16.2856 11.8219
rtibia 54.0772
rfoot -7.69053 -3.41186
rtoes -24.563
lfemur -16.6058 -7.08204 4.65518
ltibia 66.5128
lfoot -0.220042 -10.1792
ltoes -31.8157
417
root 7.13125 15.3445 4.21734 6.60737 8.12148 -0.330636
lowerback 2.67089 -2.88199 -0.56284
upperback 2.57988 -3.85473 1.28272
thorax 1.27701 -1.94704 1.68309
lowerneck -0.587153 -11.2832 -7.10984
upperneck -1.52712 -15.0589 10.495
head 1.08744 -7.53195 4.33484
rclavicle -1.61513e-015 1.44119e-014
rhumerus -18.6482 19.1154 -81.4946
rradius 50.516
rwrist 10.7154
rhand -34.1429 -24.1314
rfingers 7.12502
rthumb -7.3175 -53.9848
lclavicle -1.61513e-015 1.44119e-014
lhumerus -32.4155 -31.2694 98.3947
lradius 53.4611
lwrist -10.6723
lhand -33.6408 -38.5407
lfingers 7.12502
lthumb -6.83286 -8.67092
rfemur -43.6554 -15.9209 11.654
rtibia 55.0483
rfoot -8.45445 -3.23047
rtoes -27.0623
lfemur -18.96 -7.18356 4.42488
ltibia 69.2654
lfoot -0.562563 -10.1276
ltoes -31.6347
418
root 7.01835 15.3298 4.32587 6.49791 8.57202 -0.328145
lowerback 2.75018 -2.87191 -0.31003
upperback 2.58707 -3.83651 1.29924
thorax 1.2238 -1.9337 1.56358
lowerneck -0.782575 -11.5183 -6.99765
upperneck -1.05855 -15.393 10.3104
head 1.27977 -7.68725 4.20427
rclavicle 7.06431e-014 -3.30976e-014
rhumerus -19.0154 17.7578 -80.0585
rradius 48.1997
rwrist 11.2687
rhand -33.9852 -24.6687
rfingers 7.12502
rthumb -7.16532 -54.5274
lclavicle 7.06431e-014 -3.30976e-014
lhumerus -31.8003 -30.6081 97.7687
lradius 52.2192
lwrist -10.7139
lhand -33.2458 -38.0349
lfingers 7.12502
lthumb -6.45153 -8.15311
rfemur -43.4136 -15.5102 11.5413
rtibia 55.9618
rfoot -9.19445 -3.08833
rtoes -29.7527
lfemur -21.1932 -7.03653 4.11634
ltibia 71.8453
lfoot -0.918548 -10.0188
ltoes -32.031
419
root 6.90942 15.3137 4.43122 6.37258 8.97796 -0.345989
lowerback 2.83889 -2.851 -0.0350899
upperback 2.61095 -3.80289 1.29492
thorax 1.17939 -1.91228 1.4102
lowerneck -0.969637 -11.7601 -6.81078
upperneck -0.722846 -15.7284 10.1335
head 1.4198 -7.84524 4.0685
rclavicle 1.24986e-014 2.5842e-015
rhumerus -19.5115 16.4014 -78.6174
rradius 45.869
rwrist 11.8982
rhand -33.7111 -25.2148
rfingers 7.12502
rthumb -6.90069 -55.0823
lclavicle 1.24986e-014 2.5842e-015
lhumerus -31.2533 -29.8966 97.0143
lradius 51.2868
lwrist -10.7252
lhand -32.9865 -37.5985
lfingers 7.12502
lthumb -6.20121 -7.70924
rfemur -43.1712 -15.1758 11.5195
rtibia 56.8257
rfoot -9.90606 -3.03861
rtoes -32.3257
lfemur -23.3559 -6.71703 3.72236
ltibia 74.2697
lfoot -1.35406 -9.99431
ltoes -32.6714
420
root 6.80517 15.296 4.53369 6.24338 9.36706 -0.374421
lowerback 2.93625 -2.85347 0.219542
upperback 2.6381 -3.80041 1.31385
thorax 1.13752 -1.90705 1.29267
lowerneck -1.12612 -11.9664 -6.65747
upperneck -0.555886 -16.0069 9.98906
head 1.49866 -7.97795 3.96058
rclavicle 4.42793e-014 -1.66979e-014
rhumerus -20.117 15.1959 -77.1294
rradius 43.5361
rwrist 12.5699
rhand -33.424 -25.9447
rfingers 7.12502
rthumb -6.62358 -55.8211
lclavicle 4.42793e-014 -1.66979e-014
lhumerus -30.7689 -29.0598 96.1778
lradius 50.685
lwrist -10.7098
lhand -32.9095 -37.2137
lfingers 7.12502
lthumb -6.1268 -7.32226
rfemur -42.9411 -14.9844 11.5946
rtibia 57.646
rfoot -10.576 -3.09885
rtoes -34.4803
lfemur -25.478 -6.2853 3.21963
ltibia 76.5432
lfoot -1.91281 -10.1382
ltoes -33.2462
421
root 6.70528 15.2776 4.63391 6.11253 9.75389 -0.433216
lowerback 3.04112 -2.89497 0.448355
upperback 2.65809 -3.85002 1.38579
thorax 1.09057 -1.92882 1.2453
lowerneck -1.22665 -12.1296 -6.62394
upperneck -0.523676 -16.2216 9.91329
head 1.53501 -8.08203 3.90809
rclavicle 3.46879e-014 9.14409e-015
rhumerus -20.8294 14.2484 -75.5709
rradius 41.2257
rwrist 13.2034
rhand -33.151 -26.8661
rfingers 7.12502
rthumb -6.36 -56.7506
lclavicle 3.46879e-014 9.14409e-015
lhumerus -30.3549 -28.1317 95.2932
lradius 50.4258
lwrist -10.6311
lhand -33.0597 -36.8564
lfingers 7.12502
lthumb -6.27187 -6.9692
rfemur -42.7256 -14.9427 11.7886
rtibia 58.4251
rfoot -11.1937 -3.2545
rtoes -35.939
lfemur -27.5693 -5.77054 2.62059
ltibia 78.6555
lfoot -2.59236 -10.4967
ltoes -33.5614
